<svg aria-hidden="true" style="position: absolute; width: 0; height: 0; overflow: hidden;" version="1.1" xmlns="http://www.w3.org/2000/svg" xmlns:xlink="http://www.w3.org/1999/xlink">
<defs>
<symbol id="icon-crane" viewBox="0 0 32 32">
<path d="M27.733 1.6v-1.067c0-0.295-0.239-0.533-0.533-0.533h-5.333c-0.295 0-0.533 0.239-0.533 0.533v1.067h-20.8c-0.295 0-0.533 0.239-0.533 0.533v2.133c0 0.295 0.239 0.533 0.533 0.533h1.6v10.133c0 0.295 0.239 0.533 0.533 0.533s0.533 0.239 0.533 0.533c0 0.295-0.239 0.533-0.533 0.533s-0.533-0.239-0.533-0.533h-1.067c0.002 0.39 0.147 0.767 0.408 1.057l-1.368 1.823 0.007 0.005c-0.071 0.090-0.111 0.2-0.114 0.315v2.133c0 0.142 0.056 0.277 0.156 0.377l1.067 1.067c0.1 0.1 0.236 0.156 0.377 0.156h2.133c0.141 0 0.277-0.056 0.377-0.156l1.067-1.067c0.1-0.1 0.156-0.235 0.156-0.377v-2.133c-0.002-0.114-0.042-0.225-0.114-0.315l0.007-0.005-1.368-1.823c0.356-0.396 0.491-0.944 0.358-1.459s-0.514-0.931-1.017-1.106v-9.691h18.133v0.533c0 0.295 0.239 0.533 0.533 0.533h1.067v25.067h-2.133v-21.333h-1.067v2.133h-3.2v-1.067h-1.067v1.067h-3.2v-0.533h-1.067v0.533h-3.2v-1.6h6.933v-1.067h-6.933v-2.133h-1.067v24h-0.846l-2.51-2.51c-0.208-0.208-0.546-0.208-0.754 0l-2.51 2.51h-0.313v1.067h32v-1.067h-0.416c0.375-0.41 0.509-0.986 0.351-1.519s-0.582-0.945-1.119-1.085c0.271-0.669 0.062-1.435-0.512-1.873s-1.368-0.438-1.942 0c-0.573 0.438-0.783 1.205-0.512 1.873-0.538 0.141-0.962 0.553-1.119 1.085s-0.024 1.11 0.351 1.519h-0.949v-25.067h1.067c0.294 0 0.533-0.239 0.533-0.533v-0.533h3.733c0.295 0 0.533-0.239 0.533-0.533v-2.133c0-0.295-0.239-0.533-0.533-0.533h-3.733zM3.733 18.667h-2.133l0.8-1.067h0.533l0.8 1.067zM4.267 21.113l-0.754 0.754h-1.692l-0.754-0.754v-1.379h3.2v1.379zM27.733 3.627v-0.96h1.44l-1.44 0.96zM22.4 1.067h2.133v2.133h-2.133v-2.133zM9.44 3.733h-2.88l1.44-0.96 1.44 0.96zM4.8 3.627l-1.44-0.96h2.88l-1.44 0.96zM11.2 3.627l-1.44-0.96h2.88l-1.44 0.96zM14.4 2.773l1.44 0.96h-2.88l1.44-0.96zM17.6 3.627l-1.44-0.96h2.88l-1.44 0.96zM1.067 2.667h0.373l1.6 1.067h-1.973v-1.067zM20.96 2.667h0.373v1.067h-1.973l1.6-1.067zM25.066 29.173l-0.96-1.44 0.96-1.44v2.88zM24.107 14.933l0.96-1.44v2.88l-0.96-1.44zM24 16.694l0.96 1.44-0.96 1.44v-2.88zM24 10.293l0.96 1.44-0.96 1.44v-2.88zM24 23.093l0.96 1.44-0.96 1.44v-2.88zM24.107 21.333l0.96-1.44v2.877l-0.96-1.437zM24.107 8.533l0.96-1.44v2.88l-0.96-1.44zM24 5.867h0.604l-0.604 0.907v-0.907zM19.733 12.8v5.333h-3.2v-5.333h3.2zM15.467 17.387l-1.227-1.212c-0.1-0.098-0.234-0.154-0.373-0.154h-1.6v-3.22h3.2v4.587zM11.2 12.8v0.889h-3.2v-0.889h3.2zM4.579 30.933h-2.758l1.379-1.379 1.379 1.379zM8 30.933v-16.178h3.2v1.8c0 0.295 0.239 0.533 0.533 0.533h1.914l1.979 1.957c0.099 0.098 0.234 0.154 0.373 0.154h3.733v11.733h-11.733zM24.96 30.933h-0.96v-1.44l0.96 1.44zM30.4 30.4c-0.295 0-0.533-0.239-0.533-0.533s0.239-0.533 0.533-0.533 0.533 0.239 0.533 0.533c0 0.295-0.239 0.533-0.533 0.533zM29.866 27.733c0 0.295-0.239 0.533-0.533 0.533s-0.533-0.238-0.533-0.533c0-0.295 0.239-0.533 0.533-0.533s0.533 0.239 0.533 0.533zM28.266 29.333c0.294 0 0.533 0.239 0.533 0.533s-0.239 0.533-0.533 0.533c-0.295 0-0.533-0.239-0.533-0.533s0.239-0.533 0.533-0.533zM22.4 4.267h2.667c0.295 0 0.533-0.239 0.533-0.533v-2.667h1.067v3.733h-4.267v-0.533zM29.493 3.733l1.44-0.96v0.96h-1.44zM9.067 18.133h1.067v1.067h-1.067v-1.067zM11.2 18.133h1.067v1.067h-1.067v-1.067zM14.4 18.133h-1.067v1.067h1.067v-1.067zM9.067 20.267h1.067v1.067h-1.067v-1.067zM12.267 20.267h-1.067v1.067h1.067v-1.067zM13.333 20.267h1.067v1.067h-1.067v-1.067zM16.533 21.333v-1.067h-1.067v1.067h1.067zM17.6 20.267h1.067v1.067h-1.067v-1.067zM10.133 22.4h-1.067v1.067h1.067v-1.067zM11.2 22.4h1.067v1.067h-1.067v-1.067zM14.4 22.4h-1.067v1.067h1.067v-1.067zM15.467 23.467v-1.067h1.067v1.067h-1.067zM18.666 22.4h-1.067v1.067h1.067v-1.067zM9.067 24.533h1.067v1.067h-1.067v-1.067zM12.267 24.533h-1.067v1.067h1.067v-1.067zM13.333 24.533h1.067v1.067h-1.067v-1.067zM16.533 25.6v-1.067h-1.067v1.067h1.067zM17.6 24.533h1.067v1.067h-1.067v-1.067zM10.133 26.667h-1.067v1.067h1.067v-1.067zM11.2 26.667h1.067v1.067h-1.067v-1.067zM14.4 26.667h-1.067v1.067h1.067v-1.067zM15.467 26.667h1.067v1.067h-1.067v-1.067zM18.666 26.667h-1.067v1.067h1.067v-1.067zM9.067 28.8h1.067v1.067h-1.067v-1.067zM12.267 28.8h-1.067v1.067h1.067v-1.067zM13.333 28.8h1.067v1.067h-1.067v-1.067zM16.533 28.8h-1.067v1.067h1.067v-1.067zM17.6 28.8h1.067v1.067h-1.067v-1.067z"></path>
</symbol>
<symbol id="icon-excavator" viewBox="0 0 32 32">
<path d="M27.765 12.601l1.021 2.709c1.946 0.838 3.211 2.763 3.214 4.894-0.029 2.992-2.459 5.394-5.43 5.371-1.532-0-2.993-0.646-4.031-1.781l-0.512-0.563 3.053-1.289 2.145-4.941-2.117-2.987c-0.218-0.13-0.405-0.307-0.548-0.517l-4.86-7.342-7.502 4.533-1.914 7.71h1.45v-4.296c0-0.89 0.716-1.611 1.6-1.611h3.897c0.783-0.002 1.451 0.569 1.578 1.346l0.925 5.635v4.834h-3.733v1.074h3.733c1.473 0 2.667 1.202 2.667 2.685s-1.194 2.685-2.667 2.685h-17.067c-1.473 0-2.667-1.202-2.667-2.685s1.194-2.685 2.667-2.685h3.733v-1.074h-1.6c-0.884 0-1.6-0.721-1.6-1.611v-2.685c0-0.89 0.716-1.611 1.6-1.611h0.155l3.673-10.567 10.568-6.286c0.182-0.105 0.379-0.181 0.584-0.226 0.671-0.183 1.387 0.003 1.887 0.489 0.152 0.135 0.283 0.291 0.39 0.464 0.011 0.019 0.019 0.039 0.028 0.059v0c0.007 0.016 0.014 0.032 0.022 0.048l5.423 9.24c0.172 0.297 0.254 0.638 0.236 0.981zM2.667 26.453c-0.884 0-1.6 0.721-1.6 1.611s0.716 1.611 1.6 1.611 1.6-0.721 1.6-1.611c0-0.89-0.716-1.611-1.6-1.611zM21.334 28.065c0-0.89-0.716-1.611-1.6-1.611s-1.6 0.721-1.6 1.611c0 0.89 0.716 1.611 1.6 1.611s1.6-0.721 1.6-1.611zM17.615 29.676c-0.729-0.948-0.729-2.274 0-3.222h-3.747v1.074h-1.067v-1.074h-3.2v1.074h-1.067v-1.074h-3.747c0.729 0.948 0.729 2.274 0 3.222h2.147v-1.074h1.067v1.074h2.667v-1.074h1.067v1.074h2.667v-1.074h1.067v1.074h2.147zM14.934 25.379v-1.074h-7.467v1.074h7.467zM13.334 13.564c-0.295 0-0.533 0.24-0.533 0.537v9.13h5.867v-3.715l-0.911-5.503c-0.043-0.259-0.265-0.449-0.526-0.449h-3.897zM11.734 19.472h-6.934c-0.295 0-0.533 0.241-0.533 0.537v2.685c0 0.297 0.239 0.537 0.533 0.537h6.934v-3.759zM9.184 18.398l2.086-8.402 9.519-5.752c0.449-0.269 0.623-0.836 0.402-1.313l-0.074-0.126c-0.052-0.086-0.117-0.164-0.193-0.23-0.247-0.21-0.577-0.292-0.892-0.22-0.092 0.023-0.18 0.059-0.262 0.108l-0.004-0.007c-0.004 0.002-0.009 0.004-0.013 0.006s-0.010 0.004-0.015 0.007l-10.232 6.088-3.421 9.842h3.098zM20.615 5.602l4.832 7.301c0.192 0.289 0.568 0.39 0.878 0.235 0.171-0.085 0.298-0.239 0.352-0.422s0.029-0.382-0.068-0.548l-4.549-7.754c-0.174 0.309-0.423 0.567-0.724 0.752l-0.722 0.437zM27.112 13.896c-0.165 0.14-0.359 0.241-0.569 0.294l1.18 1.665 0.068-0.158-0.679-1.801zM26.572 24.502c2.382 0.024 4.334-1.898 4.363-4.297-0.001-1.594-0.886-3.053-2.293-3.782l-0.16 0.362-0.533 1.235-2.061 4.745-1.978 0.837c0.767 0.584 1.701 0.899 2.662 0.9zM17.067 22.694c0.589 0 1.067-0.481 1.067-1.074v-1.97c0-0.059-0.005-0.119-0.014-0.177l-0.741-4.474c-0.084-0.519-0.53-0.899-1.052-0.897h-1.926c-0.589 0-1.067 0.481-1.067 1.074v6.445c0 0.593 0.478 1.074 1.067 1.074h2.667zM14.401 20.009h2.667v1.611h-2.667v-1.611zM16.327 15.175l0.622 3.759h-2.548v-3.759h1.926zM5.334 20.009h2.133v1.074h-2.133v-1.074zM6.4 21.62h-1.067v1.074h1.067v-1.074zM3.2 27.528h-1.067v1.074h1.067v-1.074zM19.201 27.528h1.067v1.074h-1.067v-1.074z"></path>
</symbol>
<symbol id="icon-bulldozer" viewBox="0 0 32 32">
<path d="M26.133 26.303c0-1.117-0.48-2.182-1.32-2.93s-1.963-1.11-3.089-0.996l-0.407-1.21-0.228-1.126 0.747-4.788 3.475-3.176c0.014-0.003 0.027-0.005 0.041-0.008 0.026-0.005 0.052-0.010 0.079-0.017l0.459-0.13 0.293 0.652c0.086 0.188 0.276 0.31 0.485 0.31h4.8c0.216 0 0.41-0.128 0.493-0.325s0.037-0.423-0.116-0.573l-2.020-1.993-1.621-7.823c-0.038-0.184-0.172-0.333-0.352-0.393s-0.379-0.021-0.522 0.102l-2.621 2.263c-0.093 0.080-0.155 0.189-0.175 0.309l-0.525 3.085c-0.017 0.102-0.004 0.207 0.038 0.301l0.32 0.716-0.558 0.45c-0.178 0.146-0.325 0.325-0.433 0.526l-6.042 4.333c-0.146 0.105-0.228 0.275-0.219 0.453l0.3 5.815-0.284 2.226h-1.663c-0.294 0-0.533 0.236-0.533 0.526h-1.067v-1.579h2.133c0.295 0 0.533-0.236 0.533-0.526v-1.052c0-0.053-0.008-0.107-0.024-0.158l-2.667-8.419c-0.070-0.219-0.276-0.368-0.509-0.368v-1.052h-1.067v1.052h-3.2v-1.052h-1.067v1.052c-0.295 0-0.533 0.236-0.533 0.526v6.314h-2.133v-3.157c0-1.162-0.955-2.105-2.133-2.105h-0.533v1.052h0.533c0.589 0 1.067 0.471 1.067 1.052v3.157h-2.133v-0.526h0.533c0.295 0 0.533-0.236 0.533-0.526v-1.579c0-0.291-0.239-0.526-0.533-0.526h-2.133c-0.295 0-0.533 0.236-0.533 0.526v1.579c0 0.291 0.239 0.526 0.533 0.526h0.533v0.526h-0.533c-0.295 0-0.533 0.236-0.533 0.526v8.945c0 0.291 0.239 0.526 0.533 0.526h3.434c0.218 0.603 0.58 1.144 1.057 1.579h-5.023v1.052h32v-1.052h-7.156c0.821-0.744 1.289-1.794 1.289-2.894zM1.067 15.516h1.067v0.526h-1.067v-0.526zM22.133 29.198c-1.62 0-2.933-1.296-2.933-2.894s1.313-2.894 2.933-2.894c1.619 0.002 2.931 1.296 2.933 2.894 0 1.598-1.313 2.894-2.933 2.894zM25.553 4.811l1.788-1.543 1.47 7.092c0.021 0.101 0.071 0.194 0.145 0.267l1.223 1.207h-3.166l-0.34-0.756-1.587-3.522 0.467-2.744zM24.818 9.55l0.63 1.4-0.314 0.088c-0.337 0.098-0.696-0.063-0.842-0.378-0.138-0.292-0.058-0.639 0.195-0.842h-0.001l0.331-0.267zM23.255 10.916c0.020 0.064 0.043 0.127 0.070 0.188 0.143 0.306 0.373 0.564 0.661 0.744l-3.016 2.756c-0.088 0.081-0.146 0.189-0.164 0.306l-0.553 3.557c-0.549-0.388-1.277-0.428-1.867-0.102l-0.197-3.82 5.065-3.63zM18.129 22.948l0.351-2.772v-0.009l0.044-0.345c0.043-0.346 0.334-0.61 0.687-0.623s0.664 0.229 0.733 0.571l0.333 1.637c0.004 0.022 0.009 0.043 0.017 0.063l0.391 1.158c-1.537 0.59-2.549 2.049-2.551 3.676 0 0.072 0.005 0.142 0.010 0.212l0.003 0.051h-2.147v-3.157h1.6c0.269 0 0.496-0.198 0.529-0.461zM14.933 23.936v1.579h-1.067v-1.579h1.067zM10.667 18.147v-4.21h2.941l1.333 4.21h-4.275zM8 18.674c0.295 0 0.533-0.236 0.533-0.526v-6.314h4.408l0.333 1.052h-3.141c-0.295 0-0.533 0.236-0.533 0.526v5.262c0 0.291 0.239 0.526 0.533 0.526h5.141l0.192 0.606v0.446h-9.6c-0.13 0-0.255 0.047-0.353 0.132l-3.582 3.114h-0.866v-4.824h6.933zM1.067 24.55h1.067c0.13 0 0.255-0.047 0.353-0.132l3.583-3.113h6.731v5.262h-1.079l0.004-0.051v-0c0.005-0.070 0.010-0.141 0.010-0.212 0-2.18-1.791-3.946-4-3.946s-4 1.767-4 3.946c0 0.072 0.005 0.142 0.010 0.212l0.003 0.051h-2.68v-2.017zM4.8 26.303c0-1.598 1.313-2.894 2.933-2.894s2.933 1.296 2.933 2.894c0 1.598-1.313 2.894-2.933 2.894-1.619-0.002-2.931-1.296-2.933-2.894zM11.5 27.619h1.833c0.294 0 0.533-0.236 0.533-0.526v-0.526h1.067v0.526c0 0.291 0.239 0.526 0.533 0.526h2.9c0.217 0.603 0.58 1.144 1.056 1.579h-8.979c0.477-0.434 0.839-0.976 1.056-1.579zM7.733 24.462c-1.031 0-1.867 0.825-1.867 1.842s0.836 1.842 1.867 1.842c1.031 0 1.867-0.825 1.867-1.842s-0.836-1.842-1.867-1.842zM7.733 27.093c-0.442 0-0.8-0.353-0.8-0.789s0.358-0.789 0.8-0.789c0.442 0 0.8 0.353 0.8 0.789s-0.358 0.789-0.8 0.789zM22.133 28.145c1.031 0 1.867-0.825 1.867-1.842s-0.836-1.842-1.867-1.842c-1.031 0-1.867 0.825-1.867 1.842s0.836 1.842 1.867 1.842zM22.133 25.514c0.442 0 0.8 0.353 0.8 0.789s-0.358 0.789-0.8 0.789c-0.442 0-0.8-0.353-0.8-0.789s0.358-0.789 0.8-0.789zM3.2 19.726v1.052h-1.067v-1.052h1.067z"></path>
</symbol>
<symbol id="icon-truck" viewBox="0 0 32 32">
<path d="M31.863 17.008l-0.933-7.525c-0.033-0.269-0.26-0.471-0.529-0.471h-9.6c-0.295 0-0.533 0.241-0.533 0.537v9.675h-3.596c2.489-1.61 3.626-4.682 2.792-7.542s-3.439-4.823-6.396-4.821h-0.267v-1.075c0-0.297-0.239-0.537-0.533-0.537h-4.8c-0.295 0-0.533 0.241-0.533 0.537v1.075h-0.267c-2.958-0.002-5.562 1.961-6.396 4.821s0.303 5.931 2.792 7.542h-2.529c-0.295 0-0.533 0.241-0.533 0.538v3.225c0 0.297 0.239 0.538 0.533 0.538h1.067c0 0.794 0.293 1.561 0.821 2.15h-2.421v1.075h32v-1.075h-2.955c0.528-0.589 0.821-1.356 0.821-2.15h1.6c0.295 0 0.533-0.241 0.533-0.538v-4.837c0-0.022-0.002-0.045-0.004-0.067l-0.133-1.075zM29.867 20.3v-1.075h1.067v1.075h-1.067zM23.467 16.538v-4.3h6.729l0.533 4.3h-7.262zM24.288 25.675h-10.709c0.528-0.589 0.821-1.356 0.821-2.15h9.067c0 0.794 0.293 1.561 0.821 2.15zM11.2 21.375c1.178 0 2.133 0.963 2.133 2.15s-0.955 2.15-2.133 2.15c-1.178 0-2.133-0.963-2.133-2.15s0.955-2.15 2.133-2.15zM18.667 13.581c-0.004 3.116-2.509 5.64-5.6 5.644h-1.333v-11.287h1.333c3.091 0.004 5.596 2.528 5.6 5.644zM9.067 17.613v-1.075h1.6v1.075h-1.6zM10.667 15.463h-1.6v-1.075h1.6v1.075zM9.067 13.313v-1.075h1.6v1.075h-1.6zM10.667 11.162h-1.6v-1.075h1.6v1.075zM9.067 9.012v-1.075h1.6v1.075h-1.6zM9.067 18.688h1.6v0.538h-1.6v-0.538zM11.734 6.325v0.537h-3.733v-0.537h3.733zM1.067 13.581c0.004-3.116 2.509-5.64 5.6-5.644h1.333v11.288h-1.333c-3.091-0.004-5.596-2.528-5.6-5.644zM1.067 20.3h3.647c0.059-0.002 0.119-0.002 0.178 0h6.141c0.108-0.006 0.217-0.006 0.326 0h8.907v2.15h-6.053c-0.429-1.231-1.552-2.079-2.844-2.149l-0.010-0h-0.326c-1.162 0.060-2.212 0.755-2.721 1.829-0.558 1.177-0.357 2.577 0.51 3.546h-1.643c0.865-0.969 1.065-2.368 0.507-3.544-0.52-1.096-1.604-1.798-2.795-1.831h-0.178c-0.028 0.001-0.056 0.002-0.083 0.003-1.291 0.070-2.414 0.917-2.844 2.147h-0.72v-2.15zM2.667 23.525c0-1.187 0.955-2.15 2.133-2.15s2.133 0.963 2.133 2.15c0 1.187-0.955 2.15-2.133 2.15s-2.133-0.963-2.133-2.15zM26.667 21.375c1.178 0 2.133 0.963 2.133 2.15s-0.955 2.15-2.133 2.15c-1.178 0-2.133-0.963-2.133-2.15s0.955-2.15 2.133-2.15zM29.68 22.45c-0.45-1.288-1.658-2.15-3.013-2.15s-2.563 0.862-3.013 2.15h-2.32v-12.363h8.596l0.133 1.075h-7.129c-0.294 0-0.533 0.241-0.533 0.537v5.375c0 0.297 0.239 0.538 0.533 0.538h7.929l0.067 0.538h-1.596c-0.294 0-0.533 0.241-0.533 0.538v2.15c0 0.297 0.239 0.538 0.533 0.538h1.6v1.075h-1.253zM4.8 22.45c-0.589 0-1.067 0.481-1.067 1.075s0.478 1.075 1.067 1.075c0.589 0 1.067-0.481 1.067-1.075s-0.478-1.075-1.067-1.075zM11.2 22.45c-0.589 0-1.067 0.481-1.067 1.075s0.478 1.075 1.067 1.075c0.589 0 1.067-0.481 1.067-1.075s-0.478-1.075-1.067-1.075zM25.6 23.525c0-0.594 0.478-1.075 1.067-1.075s1.067 0.481 1.067 1.075c0 0.594-0.478 1.075-1.067 1.075s-1.067-0.481-1.067-1.075z"></path>
</symbol>
<symbol id="icon-facebook" viewBox="0 0 32 32">
<path d="M11.333 10.667h-5.333v5.333h5.333v16h8v-16h4.853l0.48-5.333h-5.333v-2.221c0-1.275 0.256-1.779 1.488-1.779h3.845v-6.667h-6.411c-4.795 0-6.923 2.112-6.923 6.155v4.512z"></path>
</symbol>
<symbol id="icon-instagram" viewBox="0 0 32 32">
<path d="M16 0c-4.347 0-4.888 0.019-6.597 0.099-5.813 0.267-9.040 3.491-9.307 9.304-0.077 1.709-0.096 2.253-0.096 6.597 0 4.347 0.019 4.891 0.096 6.597 0.267 5.811 3.493 9.040 9.307 9.307 1.709 0.077 2.251 0.096 6.597 0.096s4.891-0.019 6.6-0.096c5.803-0.267 9.043-3.491 9.304-9.307 0.077-1.707 0.096-2.251 0.096-6.597 0-4.344-0.019-4.888-0.096-6.597-0.261-5.805-3.491-9.040-9.304-9.304-1.709-0.080-2.253-0.099-6.6-0.099zM16 2.885c4.272 0 4.779 0.016 6.467 0.093 4.339 0.197 6.36 2.253 6.56 6.557 0.075 1.688 0.091 2.192 0.091 6.464s-0.016 4.779-0.091 6.464c-0.2 4.301-2.219 6.363-6.56 6.56-1.688 0.075-2.192 0.093-6.467 0.093-4.272 0-4.779-0.016-6.464-0.093-4.347-0.2-6.36-2.264-6.56-6.56-0.075-1.685-0.093-2.192-0.093-6.464s0.019-4.779 0.093-6.464c0.197-4.307 2.219-6.363 6.56-6.56 1.685-0.077 2.192-0.091 6.464-0.091zM7.784 16c0-4.539 3.68-8.216 8.216-8.216s8.216 3.68 8.216 8.216c0 4.539-3.68 8.216-8.216 8.216s-8.216-3.677-8.216-8.216zM16 21.333c-2.947 0-5.333-2.387-5.333-5.333 0-2.944 2.387-5.333 5.333-5.333 2.944 0 5.336 2.387 5.336 5.333s-2.392 5.333-5.336 5.333zM22.619 7.461c0-1.061 0.861-1.92 1.92-1.92 1.064 0 1.923 0.859 1.923 1.92s-0.861 1.92-1.923 1.92c-1.061 0-1.92-0.861-1.92-1.92z"></path>
</symbol>
<symbol id="icon-path" viewBox="0 0 32 32">
<path d="M0 9.358l3.772-4.025 12.233 13.282 12.223-13.282 3.772 4.025-15.995 17.308-16.005-17.308z"></path>
</symbol>
<symbol id="icon-tell" viewBox="0 0 32 32">
<path d="M5.126 1.763l3.677-1.763 5.225 10.52-3.523 1.788c-0.696 1.679 2.792 8.385 4.263 8.496 0.116-0.077 3.454-1.771 3.454-1.771l5.314 10.576c0 0-3.574 1.805-3.69 1.861-10.164 4.788-24.697-24.344-14.719-29.708zM7.622 3.461l-1.323 0.672c-6.845 3.683 5.401 28.247 12.475 24.915l1.256-0.632-2.936-5.844-1.327 0.667c-4.090 2.063-10.682-10.959-6.536-13.251l1.302-0.663-2.91-5.864zM21.52 14.82l-3.772-1.16 1.124-3.888c0.965 0.296 1.822 0.973 2.338 1.959 0.517 0.984 0.599 2.093 0.31 3.089zM20.081 5.581c2.005 0.616 3.783 2.021 4.856 4.068 1.075 2.048 1.241 4.351 0.644 6.417l-2.321-0.713c0.42-1.455 0.301-3.075-0.455-4.516-0.754-1.441-2.006-2.429-3.417-2.861l0.693-2.395zM28.716 7.541c-1.637-3.125-4.35-5.268-7.407-6.208l-0.71 2.455c2.45 0.752 4.622 2.469 5.936 4.972 1.311 2.501 1.515 5.316 0.786 7.843l2.379 0.731c0.912-3.155 0.657-6.668-0.984-9.792z"></path>
</symbol>
<symbol id="icon-email" viewBox="0 0 32 32">
<path d="M32 3.556v24.889h-32v-24.889h32zM29.333 6.321l-6.664 8.31 6.664 11.048v-19.358zM2.667 6.321v19.358h26.667l-8.701-9.151-4.593 4.816-4.557-4.874-8.815 9.209 6.735-11.062-6.735-8.296zM2.667 6.321l13.372 10.296 13.295-10.296h-26.667z"></path>
</symbol>
<symbol id="icon-twitter" viewBox="0 0 32 32">
<path d="M32 6.080c-1.176 0.523-2.443 0.875-3.771 1.035 1.357-0.813 2.395-2.099 2.888-3.632-1.269 0.752-2.675 1.299-4.171 1.592-1.195-1.277-2.904-2.075-4.789-2.075-4.24 0-7.355 3.955-6.397 8.061-5.453-0.275-10.293-2.888-13.531-6.859-1.72 2.949-0.891 6.811 2.032 8.765-1.075-0.035-2.085-0.331-2.971-0.821-0.072 3.040 2.109 5.885 5.267 6.52-0.923 0.251-1.936 0.309-2.965 0.112 0.835 2.608 3.264 4.504 6.133 4.557-2.765 2.165-6.24 3.133-9.725 2.723 2.907 1.864 6.355 2.949 10.061 2.949 12.192 0 19.077-10.296 18.661-19.531 1.285-0.923 2.397-2.080 3.277-3.397z"></path>
</symbol>
</defs>
</svg>
